<svg width="176" height="190" viewBox="0 0 176 190" fill="none" xmlns="http://www.w3.org/2000/svg">
<path d="M78.368 1.41427C87.7166 3.77816 94.1738 16.9874 96.9615 34.4968C99.7492 51.9943 113.467 73.9582 102.226 81.133C90.9841 88.3078 69.175 76.1202 55.2104 90.1966C41.2458 104.273 18.8143 107.73 18.8143 107.73C18.8143 107.73 3.48832 98.9394 5.47214 69.1473C7.45597 39.3552 29.7837 47.3853 37.732 34.3305C45.6803 21.2638 46.7953 -6.5683 78.368 1.41427Z" fill="#13145B"/>
<path d="M50.0498 41.3509L73.7131 42.6338L71.6126 51.0084L71.5996 51.0321L71.0161 53.3366L70.4715 55.558L70.3548 56.0212L67.593 56.6033L69.6417 58.0525C69.6417 58.0525 69.149 61.4736 61.8361 62.222C54.5231 62.9704 51.5279 59.965 51.5279 59.965L50.0498 41.3509Z" fill="#FAD7B2"/>
<path d="M48.507 34.9244C49.2072 44.9739 56.2219 52.6001 67.0227 54.3938C75.2951 55.7599 81.1169 52.0537 88.1965 32.5843C91.6714 23.0337 78.031 14.9205 67.0746 15.5738C56.1182 16.2153 47.8068 24.875 48.507 34.9244Z" fill="#FAD7B2"/>
<path d="M58.9963 55.6648C61.1617 57.2209 64.3384 58.5751 68.9803 59.3116C68.9803 59.3116 69.4471 58.8721 69.6286 58.0525C69.6675 57.898 69.7194 57.6961 69.7972 57.4585C70.1473 56.3538 70.8734 54.5957 70.8734 54.5957C70.8734 54.5957 58.1665 54.5245 54.3156 47.1477C54.3285 47.1477 53.7969 51.9586 58.9963 55.6648Z" fill="#FE9526"/>
<path d="M47.6636 30.7074C47.6636 30.7074 73.207 35.6965 84.9414 22.2378C84.9414 22.2378 77.6025 31.8359 71.6769 31.5033C71.6769 31.5033 80.2087 33 85.1229 23.8058C85.1229 23.8058 87.742 31.5389 92.2283 32.715C92.2283 32.715 93.4601 10.3115 72.442 9.69379C51.4238 9.06421 47.6117 21.9171 47.6636 30.7074Z" fill="#13145B"/>
<path d="M47.988 60.3807L39.547 170.212L19.3068 168.122C19.3068 168.122 15.3262 150.256 11.6049 133.483C7.88366 116.71 11.2678 87.4169 20.5646 79.2205C29.8743 71.036 47.988 60.3807 47.988 60.3807Z" fill="#F8AA58"/>
<path d="M169.689 85.9084L166.914 88.6761C163.283 92.2873 157.099 92.5248 153.157 89.1988C149.215 85.8727 148.956 80.2065 152.586 76.5954L155.361 73.8276C158.992 70.2164 165.176 69.9788 169.118 73.3049C173.047 76.6191 173.306 82.2972 169.689 85.9084Z" fill="#FAD7B2"/>
<path d="M152.508 80.4678C150.667 80.349 149.37 83.6751 149.5 81.9883L149.902 70.5609C150.032 68.8741 151.653 67.5793 153.494 67.71C155.335 67.8287 156.748 69.3136 156.606 71.0123L156.087 77.6169C155.97 79.3037 154.349 80.5866 152.508 80.4678Z" fill="#FAD7B2"/>
<path d="M156.606 77.1418C155.244 75.9895 155.154 74.0295 156.411 72.7822L161.313 67.9119C162.57 66.6647 164.71 66.5815 166.071 67.7337C167.433 68.886 167.523 70.846 166.266 72.0933L161.364 76.9636C160.107 78.199 157.967 78.2821 156.606 77.1418Z" fill="#FAD7B2"/>
<path d="M162.778 76.6547C161.416 75.5025 161.325 73.5424 162.583 72.2952L167.484 67.4249C168.742 66.1776 170.881 66.0944 172.243 67.2467C173.604 68.3989 173.695 70.3589 172.437 71.6062L167.536 76.4765C166.278 77.7238 164.139 77.807 162.778 76.6547Z" fill="#FAD7B2"/>
<path d="M164.709 80.4322C163.348 79.2799 163.257 77.3199 164.515 76.0727L169.416 71.2023C170.674 69.9551 172.813 69.8719 174.175 71.0242C175.536 72.1764 175.627 74.1364 174.369 75.3837L169.468 80.254C168.21 81.5013 166.071 81.5844 164.709 80.4322Z" fill="#FAD7B2"/>
<path d="M164.994 85.8133C163.633 84.661 163.542 82.701 164.8 81.4538L169.701 76.5834C170.959 75.3362 173.098 75.253 174.46 76.4053C175.821 77.5575 175.912 79.5175 174.654 80.7648L169.753 85.6351C168.495 86.8824 166.356 86.9655 164.994 85.8133Z" fill="#FAD7B2"/>
<path d="M166.302 68.0861L159.312 75.8157L159.852 76.2249L166.841 68.4953L166.302 68.0861Z" fill="#FE9526"/>
<path d="M172.889 70.2636L166.045 77.8259L166.584 78.2353L173.428 70.6731L172.889 70.2636Z" fill="#FE9526"/>
<path d="M173.342 75.9389L167.458 82.4404L167.997 82.8498L173.881 76.3483L173.342 75.9389Z" fill="#FE9526"/>
<path d="M30.7946 183.089L28.1624 180.214C24.7134 176.461 25.258 170.806 29.3553 167.647C33.4526 164.487 39.6245 164.986 43.0735 168.739L45.7057 171.614C49.1547 175.368 48.6101 181.022 44.5128 184.182C40.4155 187.342 34.2436 186.855 30.7946 183.089Z" fill="#FAD7B2"/>
<path d="M38.8861 168.181C39.2492 166.518 35.8131 164.914 37.6284 165.259L49.9463 167.088C51.7615 167.421 52.9415 169.06 52.5784 170.723C52.2154 172.386 50.426 173.467 48.6108 173.135L41.5183 171.816C39.703 171.483 38.5231 169.844 38.8861 168.181Z" fill="#FAD7B2"/>
<path d="M41.9584 172.327C43.3717 171.234 45.5111 171.4 46.704 172.707L51.3589 177.779C52.5517 179.074 52.3702 181.034 50.9439 182.127C49.5306 183.22 47.3912 183.053 46.1983 181.747L41.5435 176.674C40.3635 175.38 40.5451 173.42 41.9584 172.327Z" fill="#FAD7B2"/>
<path d="M41.6994 178.005C43.1127 176.912 45.2522 177.078 46.445 178.385L51.0999 183.457C52.2928 184.752 52.1113 186.712 50.685 187.805C49.2717 188.898 47.1323 188.731 45.9394 187.425L41.2845 182.353C40.0916 181.046 40.2731 179.098 41.6994 178.005Z" fill="#FAD7B2"/>
<path d="M37.3684 179.276C38.7817 178.183 40.9211 178.349 42.114 179.656L46.7689 184.728C47.9617 186.023 47.7802 187.983 46.3539 189.076C44.9406 190.169 42.8012 190.002 41.6083 188.696L36.9535 183.624C35.7606 182.317 35.9421 180.357 37.3684 179.276Z" fill="#FAD7B2"/>
<path d="M31.495 178.848C32.9083 177.755 35.0477 177.922 36.2406 179.228L40.8955 184.301C42.0884 185.595 41.9068 187.555 40.4805 188.648C39.0672 189.741 36.9278 189.575 35.7349 188.268L31.0801 183.196C29.8872 181.889 30.0817 179.929 31.495 178.848Z" fill="#FAD7B2"/>
<path d="M43.0394 174.974L42.5273 175.411L49.9993 182.753L50.5114 182.315L43.0394 174.974Z" fill="#FE9526"/>
<path d="M40.0387 180.809L39.5264 181.246L46.8355 188.434L47.3478 187.997L40.0387 180.809Z" fill="#FE9526"/>
<path d="M34.8688 181.497L34.3564 181.934L40.6403 188.114L41.1526 187.676L34.8688 181.497Z" fill="#FE9526"/>
<path d="M109.097 80.5273C96.0272 63.9207 76.3316 60.749 73.9199 60.4164C91.0612 63.1485 104.196 76.536 104.909 92.8456C104.935 93.3089 104.948 93.784 104.948 94.2473V114.786C133.759 129.599 160.443 93.879 160.443 93.879L147.127 82.5585C136.352 93.3089 123.049 98.2386 109.097 80.5273Z" fill="#B77E42"/>
<path d="M0 121.64C0 143.01 5.82181 160.412 23.9874 176.449C24.6098 176.282 26.464 175.902 31.1448 171.768C34.0881 169.179 36.1108 163.287 36.1108 163.287C36.1108 163.287 35.1643 161.862 33.8158 159.415H40.4026L81.1812 159.45L104.404 159.474C106.349 159.474 107.892 157.977 107.775 156.195L104.961 114.798V94.2592C104.961 93.784 104.948 93.3207 104.922 92.8575C104.222 76.5478 91.0744 63.1604 73.9331 60.4283C73.8553 60.4164 73.7646 60.4045 73.6868 60.3926C71.6641 60.0838 69.5895 59.9175 67.476 59.9175H54.1986C52.0981 59.9175 50.0235 60.0719 48.0008 60.3926C45.239 60.8084 42.5809 61.5092 40.0525 62.4595C18.386 69.4918 0.0129662 94.1997 0 121.64Z" fill="#F4A858"/>
<path d="M40.377 159.474H81.1685V159.45L74.4002 66.9616L73.9205 60.4283C73.8427 60.4164 73.7519 60.4045 73.6741 60.3926C71.6514 60.0838 69.5768 59.9175 67.4633 59.9175H54.1859C52.0854 59.9175 50.0108 60.0719 47.9881 60.3926L47.4695 67.1517L40.377 159.414V159.474Z" fill="#F8AA58"/>
<path d="M47.4697 67.1397C50.7242 68.5771 55.4569 76.7616 60.7212 76.7616C66.2318 76.7616 71.146 68.4939 74.4005 66.9497C74.4005 66.9497 68.9677 65.2985 69.8105 58.6227C69.7327 58.8602 69.6808 59.0622 69.6419 59.2166C69.4604 60.0362 68.9936 60.4757 68.9936 60.4757C64.3517 59.7393 61.175 58.3851 59.0096 56.8289C58.4262 56.6508 57.8945 56.4963 57.4278 56.4132C55.3532 56.0687 51.0095 55.0234 51.2429 56.8884C51.8782 62.4358 47.4697 67.1397 47.4697 67.1397Z" fill="#FAD7B2"/>
<path d="M73.9199 60.4164L81.168 170.937L112.533 167.373L104.17 113.325C104.17 113.325 92.1244 95.2332 89.2978 85.647C86.4841 76.0608 73.9199 60.4164 73.9199 60.4164Z" fill="#F4A858"/>
<path d="M42.114 93.6771C42.114 93.6771 37.874 102.277 34.7103 115.629C31.5465 128.981 36.1106 163.263 36.1106 163.263L33.8156 159.165C33.8156 159.165 23.4038 139.577 24.9338 127.532C26.4638 115.498 31.6114 104.819 42.114 93.6771Z" fill="#B77E42"/>
</svg>
